<?xml version="1.0" encoding="UTF-8"?>
<svg width="45px" height="42px" viewBox="0 0 45 42" version="1.1" xmlns="http://www.w3.org/2000/svg" xmlns:xlink="http://www.w3.org/1999/xlink">
    <!-- Generator: Sketch 48.2 (47327) - http://www.bohemiancoding.com/sketch -->
    <title>cooking</title>
    <desc>Created with Sketch.</desc>
    <defs>
        <polygon id="path-1" points="0 0.206527476 0 31.9999267 44.9255054 31.9999267 44.9255054 0.206527476"></polygon>
    </defs>
    <g id="Recipe" stroke="none" stroke-width="1" fill="none" fill-rule="evenodd" transform="translate(-975.000000, -932.000000)">
        <g id="Group-9" transform="translate(703.000000, 930.000000)">
            <g id="Group-10" transform="translate(208.000000, 0.000000)">
                <g id="cooking" transform="translate(64.000000, 2.000000)">
                    <g>
                        <g id="Group-3" transform="translate(0.000000, 10.000000)">
                            <mask id="mask-2" fill="white">
                                <use xlink:href="#path-1"></use>
                            </mask>
                            <g id="Clip-2"></g>
                            <path d="M42.6454239,13.489026 L38.5333043,13.489026 L38.5883315,11.8413924 L42.6454239,11.8413924 C43.1000707,11.8413924 43.4700978,12.2109802 43.4700978,12.665087 C43.4700978,13.1194382 43.1000707,13.489026 42.6454239,13.489026 Z M36.6112663,27.4449344 L8.31458152,27.4449344 L7.69020652,8.74007939 L37.2356413,8.74007939 L36.6112663,27.4449344 Z M34.208413,30.5462473 L10.7171902,30.5462473 C9.65430978,30.5462473 8.75871196,29.8605679 8.45276087,28.8986137 L36.4728424,28.8986137 C36.1668913,29.8605679 35.271538,30.5462473 34.208413,30.5462473 Z M33.3304239,5.63876641 C34.3874348,5.63876641 35.2849891,6.33152977 35.5931413,7.28615573 L31.067462,7.28615573 C31.3756141,6.33152977 32.273413,5.63876641 33.3304239,5.63876641 Z M2.28017935,13.489026 C1.82553261,13.489026 1.45550543,13.1194382 1.45550543,12.665087 C1.45550543,12.2109802 1.82553261,11.8413924 2.28017935,11.8413924 L6.3375163,11.8413924 L6.39254348,13.489026 L2.28017935,13.489026 Z M18.5073261,2.68377405 L23.0550163,1.68004885 C23.4993913,1.58209466 23.940587,1.86325496 24.038413,2.30661374 L24.2164565,3.11101069 L18.0580598,4.47015573 L17.8800163,3.66575878 C17.7819457,3.2224 18.0634402,2.78172824 18.5073261,2.68377405 Z M42.6454239,10.387713 L38.6367554,10.387713 L38.6917826,8.74007939 L39.5404239,8.74007939 C39.9422446,8.74007939 40.2680054,8.41470534 40.2680054,8.01311756 C40.2680054,7.61152977 39.9422446,7.28615573 39.5404239,7.28615573 L37.0930598,7.28615573 C36.7518913,5.52200305 35.1949891,4.18508702 33.3304239,4.18508702 C31.4658587,4.18508702 29.9089565,5.52200305 29.567788,7.28615573 L12.0434674,7.28615573 L37.3686848,1.69714809 C37.7609674,1.61043053 38.0089565,1.22276641 37.9223804,0.830705344 C37.8355598,0.438644275 37.4471902,0.191438168 37.054663,0.277667176 L25.637625,2.79736183 L25.4598261,1.99296489 C25.1886033,0.766705344 23.9692011,-0.010821374 22.7412391,0.260567939 L18.1935489,1.26404885 C16.9658315,1.53494962 16.187625,2.75290382 16.4588478,3.97940763 L16.6368913,4.78380458 L5.21985326,7.30349924 C4.82732609,7.39021679 4.57958152,7.77788092 4.66640217,8.16994198 C4.7343913,8.47797252 4.98922826,8.69488855 5.2856413,8.73250687 C5.30936413,8.73592672 5.33357609,8.73788092 5.35803261,8.73861374 C5.36414674,8.73885802 5.3700163,8.74032366 5.37613043,8.74032366 C5.37833152,8.74032366 5.38028804,8.74007939 5.38224457,8.74007939 C5.38322283,8.74007939 5.38420109,8.74007939 5.38517935,8.74007939 L6.23382065,8.74007939 L6.28884783,10.387713 L2.28017935,10.387713 C1.02286957,10.387713 -0.00014673913,11.4092702 -0.00014673913,12.665087 C-0.00014673913,13.9211481 1.02286957,14.9427053 2.28017935,14.9427053 L6.44096739,14.9427053 L6.88680978,28.2994076 C6.95577717,30.3745221 8.63838587,31.9999267 10.7171902,31.9999267 L34.208413,31.9999267 C36.2872174,31.9999267 37.9698261,30.3745221 38.039038,28.2994076 L38.4846359,14.9427053 L42.6454239,14.9427053 C43.9027337,14.9427053 44.9255054,13.9211481 44.9255054,12.665087 C44.9255054,11.4092702 43.9027337,10.387713 42.6454239,10.387713 Z" id="Fill-1" fill="#E25C1C" mask="url(#mask-2)"></path>
                        </g>
                        <path d="M40.4998659,13.595699 C40.9986057,13.595699 41.404301,14.0013943 41.404301,14.5001341 C41.404301,14.9986057 40.9986057,15.404301 40.4998659,15.404301 C40.0013943,15.404301 39.595699,14.9986057 39.595699,14.5001341 C39.595699,14.0013943 40.0013943,13.595699 40.4998659,13.595699 M38,14.5001341 C38,15.87864 39.12136,17 40.4998659,17 C41.87864,17 43,15.87864 43,14.5001341 C43,13.12136 41.87864,12 40.4998659,12 C39.12136,12 38,13.12136 38,14.5001341" id="Fill-4" fill="#E25C1C"></path>
                        <path d="M36.4998659,5.59569904 C36.9986057,5.59569904 37.404301,6.00139433 37.404301,6.50013407 C37.404301,6.99860567 36.9986057,7.40430096 36.4998659,7.40430096 C36.0013943,7.40430096 35.595699,6.99860567 35.595699,6.50013407 C35.595699,6.00139433 36.0013943,5.59569904 36.4998659,5.59569904 M36.4998659,9 C37.87864,9 39,7.87864 39,6.50013407 C39,5.12136 37.87864,4 36.4998659,4 C35.12136,4 34,5.12136 34,6.50013407 C34,7.87864 35.12136,9 36.4998659,9" id="Fill-6" fill="#E25C1C"></path>
                        <path d="M30.5,10 C31.3270539,10 32,9.32711258 32,8.50013081 C32,7.67288742 31.3270539,7 30.5,7 C29.6729461,7 29,7.67288742 29,8.50013081 C29,9.32711258 29.6729461,10 30.5,10" id="Fill-8" fill="#E25C1C"></path>
                        <path d="M33.0001096,2 C33.5515616,2 34,1.55134247 34,0.999890411 C34,0.448438356 33.5515616,0 33.0001096,0 C32.4484384,0 32,0.448438356 32,0.999890411 C32,1.55134247 32.4484384,2 33.0001096,2" id="Fill-10" fill="#E25C1C"></path>
                    </g>
                </g>
            </g>
        </g>
    </g>
</svg>