<?xml version="1.0" encoding="UTF-8"?>
<svg width="46px" height="39px" viewBox="0 0 46 39" version="1.1" xmlns="http://www.w3.org/2000/svg" xmlns:xlink="http://www.w3.org/1999/xlink">
    <!-- Generator: Sketch 48.2 (47327) - http://www.bohemiancoding.com/sketch -->
    <title>prepartion</title>
    <desc>Created with Sketch.</desc>
    <defs>
        <polygon id="path-1" points="45.3073957 38.084221 0 38.084221 0 0.001421 45.3073957 0.001421"></polygon>
    </defs>
    <g id="Recipe" stroke="none" stroke-width="1" fill="none" fill-rule="evenodd" transform="translate(-1153.000000, -935.000000)">
        <g id="Group-9" transform="translate(703.000000, 930.000000)">
            <g id="preparation" transform="translate(450.000000, 5.000000)">
                <g id="prepartion">
                    <mask id="mask-2" fill="white">
                        <use xlink:href="#path-1"></use>
                    </mask>
                    <g id="Clip-2"></g>
                    <path d="M43.40952,23.992976 C42.24227,25.992526 41.13592,28.032676 39.66417,29.839376 C38.76082,30.966026 37.71537,31.930276 36.51767,32.732126 C36.37557,32.833626 36.16242,32.864076 35.97972,32.864076 L17.87212,32.864076 C15.04027,32.864076 12.19827,32.874226 9.36642,32.853926 C9.12282,32.853926 8.84877,32.752426 8.64577,32.630626 C6.31127,31.067526 4.74817,28.834526 3.33732,26.479726 C2.82982,25.637276 2.35277,24.774526 1.81482,23.850876 L43.42982,23.850876 C43.41967,23.911776 43.42982,23.962526 43.40952,23.992976 Z M10.56412,19.912676 C11.25432,17.639076 12.70577,15.893276 14.53277,14.451976 C15.96392,13.294876 17.56762,12.472726 19.37432,12.076876 C20.48067,11.843426 21.57687,11.812976 22.71367,12.076876 C17.44582,14.056126 13.30462,17.354876 10.15812,22.034026 C10.29007,21.323526 10.35097,20.592726 10.56412,19.912676 Z M23.95197,13.670426 C20.38932,16.532726 16.82667,19.364576 13.28432,22.237026 C12.75652,22.663326 12.22872,22.419726 11.67047,22.521226 C13.54822,18.583026 21.16072,13.081726 24.29707,13.355776 C24.13467,13.497876 24.04332,13.599376 23.95197,13.670426 Z M25.08877,14.472276 C25.13952,14.502726 25.19027,14.533176 25.23087,14.573776 C25.08877,14.929026 24.96697,15.304576 24.79442,15.639526 C23.99257,17.192476 22.85577,18.501826 21.57687,19.669076 C20.57202,20.592726 19.47582,21.425026 18.39992,22.277626 C18.22737,22.419726 17.95332,22.490776 17.71987,22.500926 C16.87742,22.511076 16.04512,22.511076 15.20267,22.511076 C15.19252,22.480626 15.18237,22.440026 15.17222,22.409576 L25.08877,14.472276 Z M28.07287,10.260026 C28.39767,10.655876 28.69202,11.021276 29.01682,11.417126 C28.24542,12.036276 27.46387,12.665576 26.64172,13.315176 C26.32707,12.929476 26.03272,12.553926 25.70792,12.158076 C26.49962,11.518626 27.29132,10.889326 28.07287,10.260026 Z M26.04287,16.938726 C25.93122,18.197326 25.51507,19.354426 24.85532,20.410026 C24.39857,21.130676 23.85047,21.780276 23.33282,22.470476 C22.63247,22.480626 21.93212,22.500926 21.22162,22.511076 L20.35887,22.511076 C22.61217,20.673926 24.59142,18.775876 26.05302,16.329726 C26.05302,16.532726 26.06317,16.735726 26.04287,16.938726 Z M44.93202,22.592276 C44.74932,22.511076 44.53617,22.511076 44.33317,22.511076 L25.64702,22.511076 L25.10907,22.511076 C25.48462,21.902076 25.83987,21.394576 26.13422,20.846476 C27.16952,18.968726 27.69732,16.989476 27.21012,14.817376 C27.18982,14.705726 27.28117,14.502726 27.37252,14.431676 C28.19467,13.751626 29.03712,13.112176 29.86942,12.442276 C30.26527,12.127626 30.62052,11.812976 31.17877,11.823126 C31.41222,11.833276 31.68627,11.711476 31.87912,11.579526 C32.40692,11.224276 32.91442,10.838576 33.41177,10.442726 C33.84822,10.107776 33.90912,9.752526 33.66552,9.417576 C33.40162,9.082626 33.01592,9.072476 32.57947,9.407426 C32.16332,9.732226 31.77762,10.087476 31.34117,10.341226 C30.43782,10.899476 29.31117,10.249876 29.27057,9.194276 C29.24012,8.605576 29.54462,8.219876 29.97092,7.884926 C31.65582,6.545126 33.33057,5.185026 35.01547,3.855376 C35.93912,3.104276 36.85262,2.353176 37.78642,1.642676 C38.44617,1.135176 39.25817,1.256976 39.75552,1.876126 C40.22242,2.474976 40.13107,3.297126 39.54237,3.835076 C39.39012,3.956876 39.23787,4.068526 39.09577,4.200476 C37.62402,5.377876 36.15227,6.555276 34.68052,7.742826 C34.23392,8.118376 34.16287,8.483776 34.43692,8.808576 C34.70082,9.113076 35.09667,9.113076 35.50267,8.798426 C37.09622,7.509376 38.69992,6.220326 40.29347,4.931276 C40.76037,4.555726 41.10547,4.088826 41.27802,3.489976 C41.59267,2.353176 41.15622,1.155476 40.19197,0.495726 C39.14652,-0.224924 37.90822,-0.164024 36.83232,0.688576 C34.23392,2.759176 31.64567,4.839926 29.05742,6.920676 C28.57022,7.316526 28.19467,7.793576 28.02212,8.422876 C27.97137,8.575126 27.84957,8.727376 27.71762,8.839026 C26.75337,9.630726 25.77897,10.422426 24.79442,11.193826 C24.69292,11.275026 24.47977,11.315626 24.37827,11.264876 C22.21632,10.229576 20.02392,10.402126 17.83152,11.143076 C15.60867,11.904326 13.71062,13.183226 12.10692,14.868126 C10.61487,16.431226 9.47807,18.217626 9.06192,20.369426 C8.94012,21.059626 8.91982,21.759976 8.84877,22.511076 L8.35142,22.511076 L0.86072,22.511076 C0.06902,22.511076 -0.22533,23.008426 0.18067,23.708776 C0.94192,25.018126 1.70317,26.327476 2.48472,27.626676 C3.41852,29.179626 4.43352,30.661526 5.74287,31.920126 C6.47367,32.640776 7.28567,33.280226 8.09767,33.980576 L7.98602,34.214026 C7.24507,35.797426 7.94542,38.101476 10.34082,38.081176 C11.02087,38.081176 11.70092,38.091326 12.38097,38.081176 C12.92907,38.081176 13.24372,37.807126 13.23357,37.390976 C13.22342,36.984976 12.91892,36.751526 12.39112,36.751526 C11.69077,36.741376 10.98027,36.751526 10.26977,36.751526 C9.48822,36.741376 9.05177,36.284626 9.04162,35.492926 C9.03147,34.680926 9.47807,34.203876 10.26977,34.203876 C18.52172,34.193726 26.77367,34.193726 35.02562,34.203876 C35.24892,34.203876 35.50267,34.264776 35.69552,34.366276 C36.20302,34.640326 36.38572,35.249326 36.21317,35.929376 C36.08122,36.447026 35.64477,36.751526 35.00532,36.751526 L21.75957,36.751526 C19.52657,36.751526 17.30372,36.741376 15.07072,36.751526 C14.60382,36.751526 14.32977,36.995126 14.31962,37.380826 C14.29932,37.786826 14.58352,38.050726 15.06057,38.081176 L15.32447,38.081176 L28.08302,38.081176 C30.41752,38.081176 32.75202,38.091326 35.07637,38.081176 C36.44662,38.071026 37.39057,37.208276 37.57327,35.868476 C37.66462,35.178276 37.52252,34.528676 37.17742,33.929826 C37.48192,33.706526 37.73567,33.513676 37.99957,33.320826 C39.77582,31.950576 41.17652,30.245376 42.35392,28.357476 C43.31817,26.784226 44.25197,25.190676 45.17562,23.607276 C45.41922,23.191126 45.31772,22.754676 44.93202,22.592276 Z" id="Fill-1" fill="#E25C1C" mask="url(#mask-2)"></path>
                </g>
            </g>
        </g>
    </g>
</svg>