<svg xmlns="http://www.w3.org/2000/svg" width="26" height="26" viewBox="0 0 64 64" fill="F4AC29">
  <path d="M38 18H26a2 2 0 0 0-2 2v1h16v-1a2 2 0 0 0-2-2zM26 46h11v-9H26v9zm15-17a1 1 0 1 0 .002-1.998A1 1 0 0 0 41 29zM32 0C14.327 0 0 14.327 0 32s14.327 32 32 32 32-14.327 32-32S49.673 0 32 0zm7 46a2 2 0 0 1-2 2H26a2 2 0 0 1-2-2v-9a2 2 0 0 1 2-2h11a2 2 0 0 1 2 2v9zm-1-18a3 3 0 1 1 6 0 3 3 0 0 1-6 0zm10 9a4 4 0 0 1-4 4h-3v-2h3a2 2 0 0 0 2-2V25a2 2 0 0 0-2-2H20a2 2 0 0 0-2 2v12a2 2 0 0 0 2 2h2v2h-2a4 4 0 0 1-4-4V25a4 4 0 0 1 4-4h2v-1a4 4 0 0 1 4-4h12a4 4 0 0 1 4 4v1h2a4 4 0 0 1 4 4v12z"/>
</svg>