<?xml version="1.0" encoding="UTF-8"?>
<svg width="73px" height="71px" viewBox="0 0 73 71" version="1.1" xmlns="http://www.w3.org/2000/svg" xmlns:xlink="http://www.w3.org/1999/xlink">
    <!-- Generator: Sketch 48.2 (47327) - http://www.bohemiancoding.com/sketch -->
    <title>play</title>
    <desc>Created with Sketch.</desc>
    <defs></defs>
    <g id="Recipe--big" stroke="none" stroke-width="1" fill="none" fill-rule="evenodd" transform="translate(-150.000000, -86.000000)">
        <g id="play">
            <g transform="translate(149.000000, 86.000000)">
                <g transform="translate(0.988805, 0.000000)">
                    <g id="Group" opacity="0.349615036" transform="translate(0.924869, 0.000000)" fill="#000000" fill-rule="nonzero">
                        <ellipse id="Oval" cx="35.7554322" cy="35.3002613" rx="35.6074532" ry="35.154166"></ellipse>
                    </g>
                    <path d="M54.983457,65.0306417 C53.989831,65.0323942 53.112967,64.3897626 52.8270588,63.4502716 C52.5411505,62.5107806 52.9140636,61.4974356 53.7441326,60.958237 C65.1531214,53.5485673 70.3521444,39.6724619 66.5736779,26.7163955 C62.7952113,13.760329 50.9182283,4.73823159 37.2650385,4.45271119 C23.6118486,4.16719078 11.3585517,12.6846671 7.02777531,25.4711502 C2.69699888,38.2576332 7.29619821,52.3386426 18.3771453,60.2186298 C19.0280803,60.6867519 19.3766087,61.4621635 19.2914431,62.2527745 C19.2062776,63.0433855 18.7003568,63.7290833 17.9642562,64.0515721 C17.2281556,64.374061 16.3737065,64.2843472 15.7227716,63.816225 C3.04735122,54.7984506 -2.21156933,38.6881471 2.74515506,24.060283 C7.70187946,9.43241894 21.7213194,-0.310578482 37.3414022,0.017158051 C52.9614851,0.344894584 66.5489944,10.6671339 70.8717595,25.4896978 C75.1945246,40.3122617 69.2470745,56.1874361 56.1950353,64.6654036 C55.8352291,64.8998 55.4145157,65.0266267 54.983457,65.0306417 Z" id="Shape" fill="#FFFFFF" fill-rule="nonzero"></path>
                    <path d="M36.6063117,70.4635582 C31.8643252,70.4711857 27.1689572,69.5397198 22.7980188,67.7242726 C21.6858595,67.2308254 21.1751012,65.9518619 21.6469149,64.8418526 C22.1187286,63.7318434 23.4009922,63.1957302 24.5367723,63.633606 C31.7811428,66.6066518 39.8895401,66.7988021 47.2700502,64.1723322 C48.4372077,63.7537726 49.7270604,64.3485863 50.1510169,65.5008857 C50.5749734,66.6531851 49.9724901,67.9266178 48.8053326,68.3451773 C44.8959709,69.7509569 40.7669123,70.467975 36.6063117,70.4635582 Z" id="Shape" fill="#FFFFFF" fill-rule="nonzero"></path>
                    <path d="M44.9486293,33.9397494 L34.0721708,23.9504877 C33.7219543,23.625872 33.2141613,23.5284054 32.7662629,23.6998297 C32.3183645,23.8712539 32.0098004,24.281165 31.9727184,24.7540114 L31.9727184,45.1342968 C32.0101439,45.6093258 32.3215104,46.0205246 32.7724071,46.190387 C33.2233038,46.3602495 33.7329803,46.2583551 34.0814195,45.9286896 C37.2259738,42.988523 42.9879072,37.5647374 44.9948727,35.4828803 C45.2020895,35.275206 45.3143467,34.9929507 45.3056146,34.701563 C45.2968825,34.4101752 45.1679196,34.1349658 44.9486293,33.9397494 Z" id="Shape" fill="#FFFFFF" fill-rule="nonzero"></path>
                </g>
            </g>
        </g>
    </g>
</svg>