<?xml version="1.0" encoding="UTF-8"?>
<svg width="22px" height="22px" viewBox="0 0 22 22" version="1.1" xmlns="http://www.w3.org/2000/svg" xmlns:xlink="http://www.w3.org/1999/xlink">
    <!-- Generator: Sketch 48.2 (47327) - http://www.bohemiancoding.com/sketch -->
    <title>Shape</title>
    <desc>Created with Sketch.</desc>
    <defs></defs>
    <g id="Home" stroke="none" stroke-width="1" fill="none" fill-rule="evenodd" transform="translate(-968.000000, -207.000000)">
        <g id="Hero" transform="translate(0.000000, 80.000000)" fill="#C6C6C6" fill-rule="nonzero">
            <g id="Search" transform="translate(449.000000, 110.000000)">
                <path d="M540.730612,37.437551 L535.441633,32.1485714 C536.752653,30.5502041 537.542857,28.5028571 537.542857,26.2714286 C537.542857,21.1530612 533.389796,17 528.271429,17 C523.148571,17 519,21.1530612 519,26.2714286 C519,31.3897959 523.148571,35.5428571 528.271429,35.5428571 C530.502857,35.5428571 532.545714,34.7571429 534.144082,33.4461224 L539.433061,38.7306122 C539.792245,39.0897959 540.371429,39.0897959 540.730612,38.7306122 C541.089796,38.3759184 541.089796,37.7922449 540.730612,37.437551 Z M528.271429,33.697551 C524.172245,33.697551 520.840816,30.3661224 520.840816,26.2714286 C520.840816,22.1767347 524.172245,18.8408163 528.271429,18.8408163 C532.366122,18.8408163 535.702041,22.1767347 535.702041,26.2714286 C535.702041,30.3661224 532.366122,33.697551 528.271429,33.697551 Z" id="Shape"></path>
            </g>
        </g>
    </g>
</svg>